<svg xmlns="http://www.w3.org/2000/svg" viewBox="0 0 1000 1000"><defs><style>.cls-1{fill:#fff;}.cls-2{fill:#030303;}</style></defs><title>icon-black-white</title><g id="Layer_2" data-name="Layer 2"><g id="White"><g id="icon-black-white"><rect class="cls-1" width="1000" height="1000"/><path class="cls-2" d="M761.27,687.89a81.25,81.25,0,0,1-23.11,49.39l-.75.76q-1.51,1.51-2.95,3.14a0,0,0,0,1,0,0,335.24,335.24,0,0,1-234.4,95.13q-3.74,0-7.44-.09c-182.31-3.94-328.9-153-328.9-336.22,0-185.75,150.59-336.33,336.34-336.33,183.26,0,332.28,146.56,336.24,328.87-92.38-77.16-228.4-75.36-318.73,5.42q-5.13,4.57-10,9.5T498,517.57A81.61,81.61,0,0,0,622,622.64l.66-.67a81.61,81.61,0,0,1,138.59,65.92Z"/></g></g></g></svg>