<svg xmlns="http://www.w3.org/2000/svg" viewBox="0 0 672.57 672.65"><defs><style>.cls-1{fill:#030303;}</style></defs><title>icon-black-transparent</title><g id="Layer_2" data-name="Layer 2"><g id="Transparent"><path id="icon-black-transparent" class="cls-1" d="M597.55,524.21a81.19,81.19,0,0,1-23.1,49.39l-.75.76q-1.51,1.53-3,3.14h0a335.21,335.21,0,0,1-234.41,95.14q-3.72,0-7.43-.09C146.58,668.62,0,519.6,0,336.33,0,150.58,150.58,0,336.33,0,519.59,0,668.62,146.57,672.57,328.88c-92.37-77.17-228.39-75.37-318.72,5.41q-5.13,4.57-10.05,9.5t-9.56,10.11A81.6,81.6,0,0,0,458.3,459l.67-.67a81.6,81.6,0,0,1,138.58,65.92Z"/></g></g></svg>