<svg xmlns="http://www.w3.org/2000/svg" xmlns:xlink="http://www.w3.org/1999/xlink" viewBox="0 0 1462.79 1016.61"><defs><style>.cls-1{fill:url(#linear-gradient);}.cls-2{fill:url(#linear-gradient-2);}.cls-3{fill:url(#linear-gradient-3);}</style><linearGradient id="linear-gradient" x1="389.29" y1="336.32" x2="1061.86" y2="336.32" gradientUnits="userSpaceOnUse"><stop offset="0" stop-color="#15ffc2"/><stop offset="0.18" stop-color="#15f6c1"/><stop offset="0.48" stop-color="#15debe"/><stop offset="0.85" stop-color="#15b6b8"/><stop offset="1" stop-color="#15a4b6"/></linearGradient><linearGradient id="linear-gradient-2" x1="895.78" y1="632.1" x2="689.54" y2="381.92" xlink:href="#linear-gradient"/><linearGradient id="linear-gradient-3" x1="824.12" y1="516.33" x2="987.12" y2="516.33" xlink:href="#linear-gradient"/></defs><title>icon-backend</title><g id="Layer_2" data-name="Layer 2"><g id="Transparent"><g id="icon-gradient-transparent"><path class="cls-1" d="M986.84,524.21a81.19,81.19,0,0,1-23.1,49.39l-.75.76q-1.51,1.53-3,3.14h0a335.21,335.21,0,0,1-234.41,95.14q-3.72,0-7.43-.09c-182.32-3.94-328.9-153-328.9-336.23C389.29,150.58,539.87,0,725.62,0c183.26,0,332.29,146.57,336.24,328.88-92.37-77.17-228.39-75.37-318.72,5.41q-5.13,4.57-10,9.5t-9.56,10.11A81.6,81.6,0,0,0,847.59,459l.67-.67a81.6,81.6,0,0,1,138.58,65.92Z"/><path class="cls-2" d="M986.84,524.21a83.19,83.19,0,0,1-9.1,30.31c-4.77,9-11.54,16.78-18.75,24a314.72,314.72,0,0,1-52.12,41.22,334.82,334.82,0,0,1-156.71,52.08q-8.62.62-17.29.8-4.33.09-8.69.08c-1.24,0-2.48,0-3.72.05a3.46,3.46,0,0,1-3-.91c-.73-.8-1.32-1.74-2-2.58-.92-1.17-1.87-2.31-2.8-3.48-1.74-2.17-3.39-4.42-5-6.68q-5-6.9-9.49-14.15a242.61,242.61,0,0,1-33.84-92,244.74,244.74,0,0,1,16.51-131.66,243.17,243.17,0,0,1,32.06-54.59q5.08-6.53,10.61-12.7A81.61,81.61,0,0,0,825.21,474.65a80.86,80.86,0,0,0,18.32-11.94c2.92-2.55,5.59-5.36,8.5-7.91a79.09,79.09,0,0,1,9.23-7,81.57,81.57,0,0,1,125.58,76.37Z"/><circle class="cls-3" cx="905.62" cy="516.33" r="81.5"/></g><path d="M158.36,861.45c0,25-14,37.84-29.11,45.7,23.87,8.16,40.47,21.84,40.47,49.78,0,36.68-30,56.19-75.4,56.19H0V809.34H91.41C132.45,809.34,158.36,829.43,158.36,861.45Zm-35.8,5.82c0-16.59-12.81-26.2-35.81-26.2H35.22v54.15H84.13C107.13,895.22,122.56,886.19,122.56,867.27Zm11.35,85.88c0-17.47-13.68-27.66-41.92-27.66H35.22v55.9H94.61C119.06,981.39,133.91,971.78,133.91,953.15Z"/><path d="M405.21,1013.12H367.37l-20.67-49.2H250.35l-21,49.2H192.71l89.66-205.23h33.18ZM298.38,850.68l-34.93,81.51H333.6Z"/><path d="M522.24,1016.61c-59.39,0-103.64-46.29-103.64-105.09,0-58.22,43.38-105.67,105.09-105.67,37.55,0,60.26,13.1,79.76,31.73l-23,26.49c-16.31-15.14-33.77-25.33-57.06-25.33-39,0-67.25,32-67.25,72.2s28.24,72.78,67.25,72.78c25,0,41.05-10.19,58.51-26.5l23,23.29C583.66,1002.64,560.37,1016.61,522.24,1016.61Z"/><polygon points="822.94 1013.12 779.57 1013.12 709.99 921.42 678.26 954.02 678.26 1013.12 642.46 1013.12 642.46 809.34 678.26 809.34 678.26 911.81 775.2 809.34 819.16 809.34 734.45 896.97 822.94 1013.12"/><polygon points="1004.59 841.36 889.31 841.36 889.31 894.35 991.49 894.35 991.49 926.37 889.31 926.37 889.31 981.1 1006.04 981.1 1006.04 1013.12 853.5 1013.12 853.5 809.34 1004.59 809.34 1004.59 841.36"/><polygon points="1190.9 809.34 1226.12 809.34 1226.12 1013.12 1196.14 1013.12 1083.77 868.15 1083.77 1013.12 1048.54 1013.12 1048.54 809.34 1081.73 809.34 1190.9 950.24 1190.9 809.34"/><path d="M1354.49,1013.12h-76V809.34h76c64,0,108.3,44,108.3,101.6S1418.54,1013.12,1354.49,1013.12Zm0-171.17h-40.17V980.51h40.17c42.8,0,70.74-28.82,70.74-69S1397.29,842,1354.49,842Z"/></g></g></svg>