<svg xmlns="http://www.w3.org/2000/svg" xmlns:xlink="http://www.w3.org/1999/xlink" viewBox="0 0 1000 1000"><defs><style>.cls-1{fill:#252831;}.cls-2{fill:url(#linear-gradient);}.cls-3{fill:url(#linear-gradient-2);}.cls-4{fill:url(#linear-gradient-3);}</style><linearGradient id="linear-gradient" x1="163.71" y1="499.97" x2="836.29" y2="499.97" gradientUnits="userSpaceOnUse"><stop offset="0" stop-color="#15ffc2"/><stop offset="0.18" stop-color="#15f6c1"/><stop offset="0.48" stop-color="#15debe"/><stop offset="0.85" stop-color="#15b6b8"/><stop offset="1" stop-color="#15a4b6"/></linearGradient><linearGradient id="linear-gradient-2" x1="670.21" y1="795.75" x2="463.97" y2="545.56" xlink:href="#linear-gradient"/><linearGradient id="linear-gradient-3" x1="598.55" y1="679.97" x2="761.55" y2="679.97" xlink:href="#linear-gradient"/></defs><title>icon-gradient-gray</title><g id="Layer_2" data-name="Layer 2"><g id="Gray"><g id="icon-gradient-gray"><rect class="cls-1" width="1000" height="1000"/><path class="cls-2" d="M761.27,687.86a81.25,81.25,0,0,1-23.11,49.39l-.75.76q-1.51,1.53-2.95,3.14h0a335.21,335.21,0,0,1-234.4,95.14q-3.74,0-7.44-.09c-182.31-3.94-328.9-153-328.9-336.23,0-185.75,150.59-336.33,336.34-336.33,183.26,0,332.28,146.57,336.24,328.88-92.38-77.17-228.4-75.37-318.73,5.41q-5.13,4.57-10,9.5T498,517.55A81.61,81.61,0,0,0,622,622.61l.66-.67a81.61,81.61,0,0,1,138.59,65.92Z"/><path class="cls-3" d="M761.27,687.86a83.19,83.19,0,0,1-9.1,30.31c-4.77,9-11.54,16.78-18.75,24a314.14,314.14,0,0,1-52.12,41.21,334.32,334.32,0,0,1-122.53,47.86,338.62,338.62,0,0,1-34.18,4.23q-8.64.62-17.29.8c-2.9.06-5.79.09-8.69.07-1.24,0-2.48,0-3.72.06a3.43,3.43,0,0,1-3-.92c-.73-.79-1.32-1.73-2-2.58-.92-1.16-1.87-2.3-2.8-3.47-1.74-2.18-3.39-4.43-5-6.68q-5-6.91-9.49-14.15a242.59,242.59,0,0,1-33.84-92.06,244.77,244.77,0,0,1,16.51-131.66,243.11,243.11,0,0,1,32.06-54.58q5.08-6.53,10.6-12.7A81.62,81.62,0,0,0,599.64,638.3,80.9,80.9,0,0,0,618,626.35c2.92-2.54,5.59-5.35,8.5-7.91a80.9,80.9,0,0,1,9.22-7,81.62,81.62,0,0,1,125.9,64.86A83.51,83.51,0,0,1,761.27,687.86Z"/><circle class="cls-4" cx="680.05" cy="679.97" r="81.5"/></g></g></g></svg>