<svg xmlns="http://www.w3.org/2000/svg" xmlns:xlink="http://www.w3.org/1999/xlink" viewBox="0 0 1462.79 1014.15"><defs><style>.cls-1{fill:none;}.cls-2{fill:#030303;}.cls-3{fill:url(#linear-gradient);}.cls-4{fill:url(#linear-gradient-2);}.cls-5{fill:url(#linear-gradient-3);}</style><linearGradient id="linear-gradient" x1="383.32" y1="336.32" x2="1055.89" y2="336.32" gradientUnits="userSpaceOnUse"><stop offset="0" stop-color="#15ffc2"/><stop offset="0.18" stop-color="#15f6c1"/><stop offset="0.48" stop-color="#15debe"/><stop offset="0.85" stop-color="#15b6b8"/><stop offset="1" stop-color="#15a4b6"/></linearGradient><linearGradient id="linear-gradient-2" x1="889.81" y1="632.1" x2="683.57" y2="381.92" xlink:href="#linear-gradient"/><linearGradient id="linear-gradient-3" x1="818.15" y1="516.33" x2="981.15" y2="516.33" xlink:href="#linear-gradient"/></defs><title>icon-app</title><g id="Layer_2" data-name="Layer 2"><g id="Transparent"><rect class="cls-1" width="1462.79" height="1014.15"/><path class="cls-2" d="M635.42,1014H597.6l-20.66-49.17H480.65L459.7,1014H423.05l89.6-205.1h33.17ZM528.65,851.69l-34.91,81.46h70.11Z"/><path class="cls-2" d="M746.55,948.57H706.11V1014H670.32V810.38h80.3c47.42,0,77.39,26.77,77.39,68.37C828,924.72,791.35,948.57,746.55,948.57ZM747.71,843h-41.6v73.31h41.6c27.06,0,43.93-14.84,43.93-36.66C791.64,855.48,774.48,843,747.71,843Z"/><path class="cls-2" d="M940.88,948.57H900.44V1014H864.66V810.38H945c47.42,0,77.39,26.77,77.39,68.37C1022.34,924.72,985.68,948.57,940.88,948.57ZM942,843h-41.6v73.31H942c27.06,0,43.93-14.84,43.93-36.66C986,855.48,968.81,843,942,843Z"/><g id="icon-gradient-transparent"><path class="cls-3" d="M980.87,524.21a81.19,81.19,0,0,1-23.1,49.39l-.75.76q-1.51,1.53-2.95,3.14h0a335.21,335.21,0,0,1-234.41,95.14q-3.72,0-7.43-.09c-182.32-3.94-328.9-153-328.9-336.23C383.32,150.58,533.9,0,719.65,0c183.26,0,332.29,146.57,336.24,328.88-92.37-77.17-228.39-75.37-318.72,5.41q-5.13,4.57-10,9.5t-9.56,10.11A81.6,81.6,0,0,0,841.62,459c.22-.22.45-.44.67-.67a81.6,81.6,0,0,1,138.58,65.92Z"/><path class="cls-4" d="M980.87,524.21a83,83,0,0,1-9.1,30.31c-4.77,9-11.54,16.78-18.75,24a314.3,314.3,0,0,1-52.12,41.22,334.82,334.82,0,0,1-156.71,52.08q-8.62.62-17.29.8c-2.89.06-5.79.09-8.68.08-1.25,0-2.49,0-3.73.05a3.46,3.46,0,0,1-3-.91c-.73-.8-1.32-1.74-2-2.58-.93-1.17-1.88-2.31-2.81-3.48-1.73-2.17-3.39-4.42-5-6.68q-5-6.9-9.49-14.15a242.43,242.43,0,0,1-33.83-92,244.61,244.61,0,0,1,16.5-131.66A243.17,243.17,0,0,1,707,366.6q5.09-6.53,10.61-12.7A81.61,81.61,0,0,0,819.24,474.65a80.86,80.86,0,0,0,18.32-11.94c2.92-2.55,5.59-5.36,8.5-7.91a79.09,79.09,0,0,1,9.23-7,81.57,81.57,0,0,1,125.58,76.37Z"/><circle class="cls-5" cx="899.65" cy="516.33" r="81.5"/></g></g></g></svg>